<?xml version="1.0" encoding="UTF-8"?>
<svg xmlns="http://www.w3.org/2000/svg" xmlns:xlink="http://www.w3.org/1999/xlink" width="299pt" height="79pt" viewBox="0 0 299 79" version="1.1">
<defs>
<linearGradient id="linear0" gradientUnits="userSpaceOnUse" x1="78.051" y1="103.5119" x2="26.6899" y2="14.5519" gradientTransform="matrix(0.673217,0,0,0.673487,0.382353,0)">
<stop offset="0" style="stop-color:rgb(92.941176%,55.686275%,100%);stop-opacity:1;"/>
<stop offset="0.0299143" style="stop-color:rgb(95.686275%,57.254902%,100%);stop-opacity:1;"/>
<stop offset="1" style="stop-color:rgb(0%,0%,100%);stop-opacity:1;"/>
</linearGradient>
<linearGradient id="linear1" gradientUnits="userSpaceOnUse" x1="72.686" y1="79.1881" x2="43.1068" y2="27.9555" gradientTransform="matrix(0.673217,0,0,0.673487,0.382353,0)">
<stop offset="0" style="stop-color:rgb(33.72549%,97.254902%,97.254902%);stop-opacity:1;"/>
<stop offset="1" style="stop-color:rgb(0%,0%,100%);stop-opacity:1;"/>
</linearGradient>
<linearGradient id="linear2" gradientUnits="userSpaceOnUse" x1="56.1421" y1="63.0014" x2="49.0061" y2="50.6415" gradientTransform="matrix(0.673217,0,0,0.673487,0.382353,0)">
<stop offset="0" style="stop-color:rgb(33.72549%,97.254902%,97.254902%);stop-opacity:1;"/>
<stop offset="1" style="stop-color:rgb(0%,0%,100%);stop-opacity:1;"/>
</linearGradient>
</defs>
<g id="surface1">
<path style=" stroke:none;fill-rule:nonzero;fill:rgb(4.313725%,4.313725%,12.941176%);fill-opacity:1;" d="M 162.695312 45.933594 C 162.761719 44.988281 162.828125 44.179688 162.828125 43.640625 C 162.828125 40.273438 162.089844 37.3125 160.675781 34.75 C 159.261719 32.191406 157.242188 30.171875 154.75 28.757812 C 152.261719 27.34375 149.367188 26.601562 146.132812 26.601562 C 142.902344 26.601562 139.941406 27.34375 137.382812 28.757812 C 134.824219 30.171875 132.738281 32.191406 131.324219 34.75 C 129.84375 37.3125 129.101562 40.207031 129.101562 43.441406 C 129.101562 46.671875 129.84375 49.636719 131.324219 52.195312 C 132.804688 54.753906 134.957031 56.773438 137.71875 58.1875 C 140.480469 59.605469 143.644531 60.34375 147.210938 60.34375 C 150.039062 60.34375 152.597656 59.871094 154.820312 58.996094 C 157.105469 58.121094 158.992188 56.707031 160.472656 54.957031 L 160.742188 54.6875 L 156.164062 49.367188 L 155.828125 49.703125 C 153.605469 51.925781 150.914062 53.070312 147.480469 53.070312 C 144.855469 53.070312 142.566406 52.398438 140.816406 51.117188 C 139.265625 49.972656 138.257812 48.492188 137.71875 46.671875 L 137.652344 46.335938 L 162.628906 46.335938 Z M 137.585938 40.410156 L 137.652344 40.140625 C 138.054688 38.253906 138.996094 36.773438 140.34375 35.558594 C 141.894531 34.214844 143.84375 33.539062 146.132812 33.539062 C 148.488281 33.539062 150.375 34.214844 151.921875 35.558594 C 153.269531 36.773438 154.144531 38.253906 154.550781 40.074219 L 154.617188 40.34375 L 137.585938 40.34375 Z M 137.585938 40.410156 "/>
<path style=" stroke:none;fill-rule:nonzero;fill:rgb(4.313725%,4.313725%,12.941176%);fill-opacity:1;" d="M 188.410156 34.078125 C 190.769531 34.078125 192.453125 34.75 193.730469 36.03125 C 194.941406 37.378906 195.617188 39.398438 195.617188 42.027344 L 195.617188 59.941406 L 204.03125 59.941406 L 204.03125 41.082031 C 204.03125 36.367188 202.75 32.664062 200.261719 30.238281 C 197.769531 27.816406 194.335938 26.535156 190.230469 26.535156 C 187.804688 26.535156 185.652344 26.941406 183.699219 27.679688 C 182.351562 28.21875 181.074219 28.960938 180.0625 29.902344 L 179.660156 30.238281 L 179.660156 26.535156 L 171.582031 26.535156 L 171.582031 59.941406 L 179.996094 59.941406 L 179.996094 43.304688 C 179.996094 40.34375 180.738281 37.984375 182.285156 36.4375 C 183.699219 34.886719 185.785156 34.078125 188.410156 34.078125 Z M 188.410156 34.078125 "/>
<path style=" stroke:none;fill-rule:nonzero;fill:rgb(4.313725%,4.313725%,12.941176%);fill-opacity:1;" d="M 240.453125 32.328125 L 240.453125 27.007812 L 212.714844 27.007812 L 212.714844 33.875 L 229.410156 33.875 L 229.140625 34.28125 L 212.378906 54.621094 L 212.378906 59.941406 L 240.921875 59.941406 L 240.921875 53.070312 L 223.351562 53.070312 L 223.6875 52.667969 Z M 240.453125 32.328125 "/>
<path style=" stroke:none;fill-rule:nonzero;fill:rgb(4.313725%,4.313725%,12.941176%);fill-opacity:1;" d="M 279.765625 45.933594 C 279.835938 44.988281 279.902344 44.179688 279.902344 43.640625 C 279.902344 40.273438 279.160156 37.3125 277.746094 34.75 C 276.335938 32.191406 274.316406 30.171875 271.824219 28.757812 C 269.332031 27.34375 266.4375 26.601562 263.207031 26.601562 C 259.976562 26.601562 257.011719 27.34375 254.453125 28.757812 C 251.894531 30.171875 249.808594 32.191406 248.394531 34.75 C 246.914062 37.3125 246.242188 40.207031 246.242188 43.441406 C 246.242188 46.671875 246.980469 49.636719 248.464844 52.195312 C 249.945312 54.753906 252.097656 56.773438 254.859375 58.1875 C 257.617188 59.605469 260.78125 60.34375 264.351562 60.34375 C 267.179688 60.34375 269.738281 59.871094 271.957031 58.996094 C 274.246094 58.121094 276.132812 56.707031 277.613281 54.957031 L 277.882812 54.6875 L 273.304688 49.367188 L 272.96875 49.703125 C 270.746094 51.925781 268.054688 53.070312 264.621094 53.070312 C 261.996094 53.070312 259.707031 52.398438 257.957031 51.117188 C 256.40625 49.972656 255.398438 48.492188 254.859375 46.671875 L 254.792969 46.335938 L 279.765625 46.335938 Z M 254.65625 40.410156 L 254.722656 40.140625 C 255.128906 38.253906 256.070312 36.773438 257.417969 35.558594 C 258.964844 34.214844 260.917969 33.539062 263.207031 33.539062 C 265.5625 33.539062 267.449219 34.214844 268.996094 35.558594 C 270.34375 36.773438 271.21875 38.253906 271.621094 40.074219 L 271.6875 40.34375 L 254.65625 40.34375 Z M 254.65625 40.410156 "/>
<path style=" stroke:none;fill-rule:nonzero;fill:rgb(4.313725%,4.313725%,12.941176%);fill-opacity:1;" d="M 120.484375 59.941406 L 120.484375 19.464844 L 112.070312 19.464844 L 112.070312 30.238281 L 111.664062 29.902344 C 110.65625 29.027344 109.511719 28.285156 108.230469 27.746094 C 106.414062 27.007812 104.394531 26.601562 102.238281 26.601562 C 99.074219 26.601562 96.25 27.277344 93.691406 28.691406 C 91.132812 30.105469 89.179688 32.058594 87.699219 34.617188 C 86.285156 37.175781 85.542969 40.140625 85.542969 43.441406 C 85.542969 46.738281 86.285156 49.703125 87.699219 52.261719 C 89.113281 54.820312 91.132812 56.84375 93.691406 58.257812 C 96.179688 59.671875 99.074219 60.34375 102.238281 60.34375 C 104.460938 60.34375 106.546875 59.941406 108.433594 59.199219 C 109.78125 58.660156 110.925781 57.851562 112 56.910156 L 112.40625 56.503906 L 112.40625 59.871094 L 120.484375 59.871094 Z M 110.992188 48.558594 C 110.183594 49.972656 109.105469 51.117188 107.761719 51.925781 C 106.414062 52.734375 104.730469 53.070312 103.117188 53.070312 C 101.5 53.070312 99.816406 52.667969 98.46875 51.925781 C 97.125 51.183594 96.046875 50.039062 95.238281 48.558594 C 94.429688 47.144531 94.027344 45.394531 94.027344 43.507812 C 94.027344 41.621094 94.429688 39.871094 95.238281 38.457031 C 96.046875 37.042969 97.125 35.898438 98.46875 35.089844 C 99.816406 34.28125 101.363281 33.945312 103.117188 33.945312 C 104.796875 33.945312 106.414062 34.347656 107.761719 35.089844 C 109.105469 35.898438 110.183594 36.972656 110.992188 38.457031 C 111.800781 39.871094 112.203125 41.621094 112.203125 43.507812 C 112.203125 45.394531 111.734375 47.078125 110.992188 48.558594 Z M 110.992188 48.558594 "/>
<path style=" stroke:none;fill-rule:nonzero;fill:rgb(4.313725%,4.313725%,12.941176%);fill-opacity:1;" d="M 288.585938 19.464844 L 297 19.464844 L 297 59.941406 L 288.585938 59.941406 Z M 288.585938 19.464844 "/>
<path style=" stroke:none;fill-rule:nonzero;fill:url(#linear0);" d="M 69.722656 54.484375 C 69.183594 53.476562 68.308594 52.800781 67.300781 52.464844 L 67.300781 43.507812 C 69.050781 42.832031 70.328125 41.082031 70.328125 39.0625 C 70.328125 37.042969 69.117188 35.289062 67.300781 34.617188 L 67.300781 27.613281 C 69.050781 26.871094 70.261719 25.1875 70.328125 23.167969 C 70.328125 20.542969 68.175781 18.386719 65.550781 18.320312 C 62.925781 18.320312 60.769531 20.472656 60.703125 23.101562 C 60.703125 25.121094 61.980469 26.871094 63.800781 27.613281 L 63.800781 34.550781 C 61.980469 35.222656 60.703125 36.972656 60.703125 38.996094 C 60.703125 41.015625 61.980469 42.765625 63.730469 43.441406 L 63.730469 52.398438 C 63.53125 52.464844 63.328125 52.53125 63.125 52.667969 C 61.375 53.675781 60.5 55.628906 60.769531 57.515625 L 53.027344 62.027344 C 51.546875 60.882812 49.390625 60.613281 47.640625 61.625 C 45.890625 62.632812 45.015625 64.585938 45.285156 66.472656 L 38.6875 70.3125 C 38.488281 70.175781 38.351562 70.042969 38.148438 69.90625 C 36.398438 68.898438 34.246094 69.101562 32.765625 70.3125 L 26.167969 66.472656 C 26.4375 64.585938 25.5625 62.632812 23.808594 61.625 C 22.058594 60.613281 19.972656 60.816406 18.425781 62.027344 L 10.617188 57.515625 C 10.617188 57.3125 10.683594 57.113281 10.683594 56.84375 C 10.683594 54.820312 9.472656 53.070312 7.652344 52.398438 L 7.652344 43.441406 C 9.402344 42.765625 10.683594 41.015625 10.683594 38.996094 C 10.683594 36.972656 9.472656 35.222656 7.652344 34.550781 L 7.652344 26.941406 C 7.855469 26.871094 8.058594 26.804688 8.257812 26.671875 C 10.007812 25.660156 10.882812 23.707031 10.617188 21.820312 L 18.558594 17.308594 C 20.039062 18.453125 22.195312 18.722656 23.945312 17.710938 C 25.695312 16.703125 26.570312 14.75 26.300781 12.863281 L 32.898438 9.023438 C 34.378906 10.238281 36.535156 10.4375 38.285156 9.429688 C 40.574219 8.082031 41.382812 5.1875 40.035156 2.894531 C 38.6875 0.605469 35.660156 -0.203125 33.371094 1.144531 C 31.621094 2.15625 30.746094 4.109375 31.015625 5.992188 L 24.484375 9.765625 C 23.003906 8.554688 20.847656 8.351562 19.097656 9.363281 C 17.347656 10.371094 16.472656 12.324219 16.742188 14.277344 L 9 18.722656 C 7.519531 17.511719 5.363281 17.308594 3.613281 18.320312 C 1.324219 19.664062 0.515625 22.5625 1.863281 24.851562 C 2.46875 25.863281 3.34375 26.535156 4.355469 26.941406 L 4.355469 34.484375 C 2.535156 35.15625 1.257812 36.90625 1.257812 38.925781 C 1.257812 40.949219 2.535156 42.699219 4.285156 43.371094 L 4.285156 52.328125 C 2.46875 53.003906 1.191406 54.753906 1.191406 56.773438 C 1.191406 59.402344 3.34375 61.558594 5.96875 61.625 C 7.113281 61.625 8.125 61.21875 9 60.546875 L 16.742188 65.058594 C 16.472656 66.945312 17.28125 68.898438 19.097656 69.976562 C 20.847656 70.984375 23.003906 70.785156 24.484375 69.570312 L 31.015625 73.34375 C 30.746094 75.226562 31.621094 77.179688 33.371094 78.191406 C 35.660156 79.539062 38.621094 78.730469 39.898438 76.441406 C 40.4375 75.429688 40.640625 74.351562 40.4375 73.34375 L 47.035156 69.570312 C 48.515625 70.785156 50.671875 70.984375 52.421875 69.976562 C 54.171875 68.964844 55.046875 67.011719 54.777344 65.058594 L 62.519531 60.613281 C 64 61.824219 66.15625 62.027344 67.90625 61.019531 C 70.261719 59.671875 71.003906 56.773438 69.722656 54.484375 Z M 69.722656 54.484375 "/>
<path style=" stroke:none;fill-rule:nonzero;fill:url(#linear1);" d="M 54.375 33 C 55.519531 30.644531 54.507812 27.746094 52.152344 26.601562 C 52.019531 26.535156 51.949219 26.535156 51.816406 26.46875 L 51.816406 16.90625 C 53.566406 16.230469 54.84375 14.480469 54.84375 12.460938 C 54.84375 9.832031 52.691406 7.679688 50.066406 7.609375 C 47.441406 7.609375 45.285156 9.765625 45.21875 12.390625 C 45.21875 14.414062 46.496094 16.164062 48.25 16.835938 L 48.25 26.402344 C 47.777344 26.601562 47.371094 26.804688 47.035156 27.140625 L 40.507812 23.371094 C 40.640625 22.496094 40.507812 21.550781 40.035156 20.675781 C 38.890625 18.320312 35.996094 17.308594 33.640625 18.453125 C 31.753906 19.394531 30.746094 21.347656 31.015625 23.371094 L 24.484375 27.140625 C 23.070312 25.996094 21.117188 25.726562 19.367188 26.535156 C 17.011719 27.679688 16 30.578125 17.144531 32.933594 C 17.683594 34.078125 18.625 34.886719 19.703125 35.289062 L 19.703125 42.832031 C 18.625 43.238281 17.683594 44.046875 17.144531 45.191406 C 16 47.546875 17.011719 50.445312 19.367188 51.589844 C 21.117188 52.398438 23.070312 52.128906 24.484375 50.984375 L 31.015625 54.753906 C 30.878906 55.628906 31.015625 56.574219 31.484375 57.449219 C 32.628906 59.804688 35.523438 60.816406 37.878906 59.671875 C 39.765625 58.726562 40.777344 56.773438 40.507812 54.753906 L 47.035156 50.984375 C 48.449219 52.128906 50.402344 52.398438 52.152344 51.589844 C 54.507812 50.445312 55.519531 47.546875 54.375 45.191406 C 53.835938 44.046875 52.894531 43.238281 51.816406 42.832031 L 51.816406 35.289062 C 52.894531 34.953125 53.835938 34.144531 54.375 33 Z M 47.980469 43.035156 C 46.027344 43.980469 45.085938 46 45.351562 48.019531 L 38.890625 51.722656 C 37.476562 50.578125 35.457031 50.242188 33.707031 51.050781 C 33.371094 51.253906 33.035156 51.453125 32.765625 51.722656 L 26.300781 48.019531 C 26.570312 46 25.628906 43.980469 23.675781 43.035156 C 23.542969 42.96875 23.472656 42.96875 23.339844 42.902344 L 23.339844 35.359375 C 23.472656 35.289062 23.542969 35.289062 23.675781 35.222656 C 25.628906 34.28125 26.570312 32.261719 26.300781 30.238281 L 32.765625 26.535156 C 34.179688 27.679688 36.199219 28.015625 37.949219 27.207031 C 38.285156 27.007812 38.621094 26.804688 38.890625 26.535156 L 45.351562 30.238281 C 45.085938 32.261719 46.027344 34.28125 47.980469 35.222656 C 48.113281 35.289062 48.179688 35.289062 48.316406 35.359375 L 48.316406 42.902344 C 48.179688 42.96875 48.113281 42.96875 47.980469 43.035156 Z M 47.980469 43.035156 "/>
<path style=" stroke:none;fill-rule:nonzero;fill:url(#linear2);" d="M 40.574219 38.253906 C 40.574219 40.894531 38.433594 43.035156 35.792969 43.035156 C 33.152344 43.035156 31.015625 40.894531 31.015625 38.253906 C 31.015625 35.613281 33.152344 33.472656 35.792969 33.472656 C 38.433594 33.472656 40.574219 35.613281 40.574219 38.253906 Z M 40.574219 38.253906 "/>
</g>
</svg>
