<?xml version="1.0" encoding="UTF-8"?>
<svg xmlns="http://www.w3.org/2000/svg" xmlns:xlink="http://www.w3.org/1999/xlink" width="177pt" height="47pt" viewBox="0 0 177 47" version="1.1">
<defs>
<linearGradient id="linear0" gradientUnits="userSpaceOnUse" x1="78.051" y1="103.5119" x2="26.6899" y2="14.5519" gradientTransform="matrix(0.398527,0,0,0.400682,0.226343,0)">
<stop offset="0" style="stop-color:rgb(92.941176%,55.686275%,100%);stop-opacity:1;"/>
<stop offset="0.0299143" style="stop-color:rgb(95.686275%,57.254902%,100%);stop-opacity:1;"/>
<stop offset="1" style="stop-color:rgb(0%,0%,100%);stop-opacity:1;"/>
</linearGradient>
<linearGradient id="linear1" gradientUnits="userSpaceOnUse" x1="72.686" y1="79.1881" x2="43.1068" y2="27.9555" gradientTransform="matrix(0.398527,0,0,0.400682,0.226343,0)">
<stop offset="0" style="stop-color:rgb(33.72549%,97.254902%,97.254902%);stop-opacity:1;"/>
<stop offset="1" style="stop-color:rgb(0%,0%,100%);stop-opacity:1;"/>
</linearGradient>
<linearGradient id="linear2" gradientUnits="userSpaceOnUse" x1="56.1421" y1="63.0014" x2="49.0061" y2="50.6415" gradientTransform="matrix(0.398527,0,0,0.400682,0.226343,0)">
<stop offset="0" style="stop-color:rgb(33.72549%,97.254902%,97.254902%);stop-opacity:1;"/>
<stop offset="1" style="stop-color:rgb(0%,0%,100%);stop-opacity:1;"/>
</linearGradient>
</defs>
<g id="surface1">
<path style=" stroke:none;fill-rule:nonzero;fill:rgb(4.313725%,4.313725%,12.941176%);fill-opacity:1;" d="M 96.3125 27.328125 C 96.351562 26.765625 96.390625 26.285156 96.390625 25.964844 C 96.390625 23.960938 95.953125 22.199219 95.117188 20.675781 C 94.277344 19.152344 93.082031 17.949219 91.609375 17.109375 C 90.132812 16.269531 88.421875 15.828125 86.507812 15.828125 C 84.59375 15.828125 82.839844 16.269531 81.328125 17.109375 C 79.8125 17.949219 78.578125 19.152344 77.738281 20.675781 C 76.863281 22.199219 76.425781 23.921875 76.425781 25.84375 C 76.425781 27.765625 76.863281 29.53125 77.738281 31.054688 C 78.617188 32.574219 79.890625 33.777344 81.527344 34.617188 C 83.160156 35.460938 85.03125 35.902344 87.144531 35.902344 C 88.820312 35.902344 90.332031 35.621094 91.648438 35.101562 C 93.003906 34.578125 94.121094 33.738281 94.996094 32.695312 L 95.15625 32.535156 L 92.445312 29.371094 L 92.246094 29.570312 C 90.929688 30.894531 89.335938 31.574219 87.304688 31.574219 C 85.75 31.574219 84.394531 31.171875 83.359375 30.410156 C 82.441406 29.730469 81.84375 28.847656 81.527344 27.765625 L 81.484375 27.566406 L 96.269531 27.566406 Z M 81.445312 24.039062 L 81.484375 23.878906 C 81.726562 22.757812 82.28125 21.878906 83.078125 21.15625 C 83.996094 20.355469 85.152344 19.953125 86.507812 19.953125 C 87.902344 19.953125 89.019531 20.355469 89.933594 21.15625 C 90.730469 21.878906 91.25 22.757812 91.488281 23.839844 L 91.527344 24 L 81.445312 24 Z M 81.445312 24.039062 "/>
<path style=" stroke:none;fill-rule:nonzero;fill:rgb(4.313725%,4.313725%,12.941176%);fill-opacity:1;" d="M 111.535156 20.273438 C 112.929688 20.273438 113.925781 20.675781 114.683594 21.4375 C 115.402344 22.238281 115.800781 23.441406 115.800781 25.003906 L 115.800781 35.660156 L 120.78125 35.660156 L 120.78125 24.441406 C 120.78125 21.636719 120.023438 19.433594 118.550781 17.992188 C 117.074219 16.546875 115.042969 15.785156 112.609375 15.785156 C 111.175781 15.785156 109.902344 16.027344 108.746094 16.46875 C 107.949219 16.789062 107.191406 17.230469 106.59375 17.789062 L 106.355469 17.992188 L 106.355469 15.785156 L 101.570312 15.785156 L 101.570312 35.660156 L 106.554688 35.660156 L 106.554688 25.765625 C 106.554688 24 106.992188 22.597656 107.910156 21.675781 C 108.746094 20.753906 109.980469 20.273438 111.535156 20.273438 Z M 111.535156 20.273438 "/>
<path style=" stroke:none;fill-rule:nonzero;fill:rgb(4.313725%,4.313725%,12.941176%);fill-opacity:1;" d="M 142.339844 19.234375 L 142.339844 16.066406 L 125.921875 16.066406 L 125.921875 20.15625 L 135.804688 20.15625 L 135.644531 20.394531 L 125.722656 32.496094 L 125.722656 35.660156 L 142.621094 35.660156 L 142.621094 31.574219 L 132.21875 31.574219 L 132.417969 31.332031 Z M 142.339844 19.234375 "/>
<path style=" stroke:none;fill-rule:nonzero;fill:rgb(4.313725%,4.313725%,12.941176%);fill-opacity:1;" d="M 165.613281 27.328125 C 165.65625 26.765625 165.695312 26.285156 165.695312 25.964844 C 165.695312 23.960938 165.257812 22.199219 164.417969 20.675781 C 163.582031 19.152344 162.386719 17.949219 160.914062 17.109375 C 159.4375 16.269531 157.722656 15.828125 155.8125 15.828125 C 153.898438 15.828125 152.144531 16.269531 150.628906 17.109375 C 149.117188 17.949219 147.878906 19.152344 147.042969 20.675781 C 146.167969 22.199219 145.769531 23.921875 145.769531 25.84375 C 145.769531 27.765625 146.207031 29.53125 147.082031 31.054688 C 147.960938 32.574219 149.234375 33.777344 150.871094 34.617188 C 152.503906 35.460938 154.375 35.902344 156.488281 35.902344 C 158.164062 35.902344 159.675781 35.621094 160.992188 35.101562 C 162.347656 34.578125 163.460938 33.738281 164.339844 32.695312 L 164.5 32.535156 L 161.789062 29.371094 L 161.589844 29.570312 C 160.273438 30.894531 158.679688 31.574219 156.648438 31.574219 C 155.09375 31.574219 153.738281 31.171875 152.703125 30.410156 C 151.785156 29.730469 151.1875 28.847656 150.871094 27.765625 L 150.828125 27.566406 L 165.613281 27.566406 Z M 150.75 24.039062 L 150.789062 23.878906 C 151.027344 22.757812 151.585938 21.878906 152.382812 21.15625 C 153.300781 20.355469 154.457031 19.953125 155.8125 19.953125 C 157.207031 19.953125 158.320312 20.355469 159.238281 21.15625 C 160.035156 21.878906 160.554688 22.757812 160.792969 23.839844 L 160.832031 24 L 150.75 24 Z M 150.75 24.039062 "/>
<path style=" stroke:none;fill-rule:nonzero;fill:rgb(4.313725%,4.313725%,12.941176%);fill-opacity:1;" d="M 71.324219 35.660156 L 71.324219 11.578125 L 66.34375 11.578125 L 66.34375 17.992188 L 66.101562 17.789062 C 65.503906 17.269531 64.828125 16.828125 64.070312 16.507812 C 62.996094 16.066406 61.796875 15.828125 60.523438 15.828125 C 58.648438 15.828125 56.976562 16.226562 55.460938 17.070312 C 53.949219 17.910156 52.792969 19.074219 51.914062 20.59375 C 51.078125 22.117188 50.640625 23.878906 50.640625 25.84375 C 50.640625 27.808594 51.078125 29.570312 51.914062 31.09375 C 52.753906 32.617188 53.949219 33.816406 55.460938 34.660156 C 56.9375 35.5 58.648438 35.902344 60.523438 35.902344 C 61.839844 35.902344 63.074219 35.660156 64.191406 35.21875 C 64.988281 34.898438 65.664062 34.417969 66.300781 33.859375 L 66.542969 33.617188 L 66.542969 35.621094 L 71.324219 35.621094 Z M 65.703125 28.890625 C 65.226562 29.730469 64.589844 30.410156 63.792969 30.894531 C 62.996094 31.375 61.996094 31.574219 61.042969 31.574219 C 60.085938 31.574219 59.089844 31.332031 58.292969 30.894531 C 57.496094 30.453125 56.855469 29.769531 56.378906 28.890625 C 55.902344 28.046875 55.660156 27.007812 55.660156 25.882812 C 55.660156 24.761719 55.902344 23.71875 56.378906 22.878906 C 56.855469 22.039062 57.496094 21.355469 58.292969 20.875 C 59.089844 20.394531 60.003906 20.195312 61.042969 20.195312 C 62.039062 20.195312 62.996094 20.433594 63.792969 20.875 C 64.589844 21.355469 65.226562 21.996094 65.703125 22.878906 C 66.183594 23.71875 66.421875 24.761719 66.421875 25.882812 C 66.421875 27.007812 66.144531 28.007812 65.703125 28.890625 Z M 65.703125 28.890625 "/>
<path style=" stroke:none;fill-rule:nonzero;fill:rgb(4.313725%,4.313725%,12.941176%);fill-opacity:1;" d="M 170.835938 11.578125 L 175.816406 11.578125 L 175.816406 35.660156 L 170.835938 35.660156 Z M 170.835938 11.578125 "/>
<path style=" stroke:none;fill-rule:nonzero;fill:url(#linear0);" d="M 41.273438 32.414062 C 40.957031 31.8125 40.4375 31.414062 39.839844 31.214844 L 39.839844 25.882812 C 40.875 25.484375 41.632812 24.441406 41.632812 23.238281 C 41.632812 22.039062 40.914062 20.996094 39.839844 20.59375 L 39.839844 16.429688 C 40.875 15.988281 41.59375 14.984375 41.632812 13.785156 C 41.632812 12.222656 40.359375 10.9375 38.804688 10.898438 C 37.25 10.898438 35.972656 12.179688 35.933594 13.742188 C 35.933594 14.945312 36.691406 15.988281 37.765625 16.429688 L 37.765625 20.554688 C 36.691406 20.957031 35.933594 21.996094 35.933594 23.199219 C 35.933594 24.402344 36.691406 25.441406 37.726562 25.84375 L 37.726562 31.171875 C 37.609375 31.214844 37.488281 31.253906 37.367188 31.332031 C 36.332031 31.933594 35.816406 33.097656 35.972656 34.21875 L 31.390625 36.902344 C 30.515625 36.222656 29.238281 36.0625 28.203125 36.664062 C 27.167969 37.261719 26.648438 38.425781 26.808594 39.546875 L 22.902344 41.832031 C 22.78125 41.75 22.703125 41.671875 22.582031 41.589844 C 21.546875 40.988281 20.273438 41.109375 19.394531 41.832031 L 15.488281 39.546875 C 15.648438 38.425781 15.132812 37.261719 14.09375 36.664062 C 13.058594 36.0625 11.824219 36.179688 10.90625 36.902344 L 6.285156 34.21875 C 6.285156 34.097656 6.324219 33.976562 6.324219 33.816406 C 6.324219 32.617188 5.605469 31.574219 4.53125 31.171875 L 4.53125 25.84375 C 5.566406 25.441406 6.324219 24.402344 6.324219 23.199219 C 6.324219 21.996094 5.605469 20.957031 4.53125 20.554688 L 4.53125 16.027344 C 4.648438 15.988281 4.769531 15.945312 4.890625 15.867188 C 5.925781 15.265625 6.441406 14.105469 6.285156 12.980469 L 10.988281 10.296875 C 11.863281 10.980469 13.136719 11.140625 14.175781 10.539062 C 15.210938 9.9375 15.730469 8.773438 15.570312 7.652344 L 19.476562 5.367188 C 20.351562 6.089844 21.628906 6.210938 22.664062 5.609375 C 24.019531 4.808594 24.496094 3.085938 23.699219 1.722656 C 22.902344 0.359375 21.109375 -0.121094 19.753906 0.679688 C 18.71875 1.28125 18.199219 2.445312 18.359375 3.566406 L 14.492188 5.808594 C 13.617188 5.089844 12.339844 4.96875 11.304688 5.570312 C 10.269531 6.171875 9.75 7.332031 9.910156 8.496094 L 5.328125 11.140625 C 4.449219 10.417969 3.175781 10.296875 2.140625 10.898438 C 0.785156 11.699219 0.304688 13.421875 1.101562 14.785156 C 1.460938 15.386719 1.980469 15.785156 2.578125 16.027344 L 2.578125 20.515625 C 1.5 20.914062 0.746094 21.957031 0.746094 23.160156 C 0.746094 24.363281 1.5 25.402344 2.539062 25.804688 L 2.539062 31.132812 C 1.460938 31.535156 0.703125 32.574219 0.703125 33.777344 C 0.703125 35.339844 1.980469 36.621094 3.535156 36.664062 C 4.210938 36.664062 4.808594 36.421875 5.328125 36.019531 L 9.910156 38.707031 C 9.75 39.828125 10.230469 40.988281 11.304688 41.632812 C 12.339844 42.230469 13.617188 42.113281 14.492188 41.390625 L 18.359375 43.632812 C 18.199219 44.757812 18.71875 45.917969 19.753906 46.519531 C 21.109375 47.320312 22.863281 46.839844 23.621094 45.476562 C 23.9375 44.875 24.058594 44.234375 23.9375 43.632812 L 27.84375 41.390625 C 28.722656 42.113281 29.996094 42.230469 31.03125 41.632812 C 32.070312 41.03125 32.585938 39.867188 32.425781 38.707031 L 37.011719 36.0625 C 37.886719 36.78125 39.164062 36.902344 40.199219 36.300781 C 41.59375 35.5 42.03125 33.777344 41.273438 32.414062 Z M 41.273438 32.414062 "/>
<path style=" stroke:none;fill-rule:nonzero;fill:url(#linear1);" d="M 32.1875 19.632812 C 32.867188 18.230469 32.269531 16.507812 30.871094 15.828125 C 30.792969 15.785156 30.753906 15.785156 30.671875 15.746094 L 30.671875 10.058594 C 31.710938 9.65625 32.46875 8.613281 32.46875 7.414062 C 32.46875 5.851562 31.191406 4.566406 29.636719 4.527344 C 28.082031 4.527344 26.808594 5.808594 26.769531 7.371094 C 26.769531 8.574219 27.527344 9.617188 28.5625 10.015625 L 28.5625 15.707031 C 28.28125 15.828125 28.042969 15.945312 27.84375 16.148438 L 23.980469 13.902344 C 24.058594 13.382812 23.980469 12.820312 23.699219 12.300781 C 23.023438 10.898438 21.308594 10.296875 19.914062 10.980469 C 18.796875 11.539062 18.199219 12.703125 18.359375 13.902344 L 14.492188 16.148438 C 13.65625 15.464844 12.5 15.304688 11.464844 15.785156 C 10.070312 16.46875 9.472656 18.191406 10.148438 19.59375 C 10.46875 20.273438 11.027344 20.753906 11.664062 20.996094 L 11.664062 25.484375 C 11.027344 25.722656 10.46875 26.203125 10.148438 26.886719 C 9.472656 28.289062 10.070312 30.011719 11.464844 30.691406 C 12.5 31.171875 13.65625 31.011719 14.492188 30.332031 L 18.359375 32.574219 C 18.28125 33.097656 18.359375 33.65625 18.636719 34.179688 C 19.316406 35.582031 21.03125 36.179688 22.425781 35.5 C 23.539062 34.941406 24.136719 33.777344 23.980469 32.574219 L 27.84375 30.332031 C 28.679688 31.011719 29.835938 31.171875 30.871094 30.691406 C 32.269531 30.011719 32.867188 28.289062 32.1875 26.886719 C 31.871094 26.203125 31.3125 25.722656 30.671875 25.484375 L 30.671875 20.996094 C 31.3125 20.796875 31.871094 20.316406 32.1875 19.632812 Z M 28.402344 25.605469 C 27.246094 26.164062 26.6875 27.367188 26.847656 28.570312 L 23.023438 30.773438 C 22.183594 30.089844 20.988281 29.890625 19.953125 30.371094 C 19.753906 30.492188 19.554688 30.613281 19.394531 30.773438 L 15.570312 28.570312 C 15.730469 27.367188 15.171875 26.164062 14.015625 25.605469 C 13.9375 25.5625 13.894531 25.5625 13.816406 25.523438 L 13.816406 21.035156 C 13.894531 20.996094 13.9375 20.996094 14.015625 20.957031 C 15.171875 20.394531 15.730469 19.191406 15.570312 17.992188 L 19.394531 15.785156 C 20.230469 16.46875 21.429688 16.667969 22.464844 16.1875 C 22.664062 16.066406 22.863281 15.945312 23.023438 15.785156 L 26.847656 17.992188 C 26.6875 19.191406 27.246094 20.394531 28.402344 20.957031 C 28.480469 20.996094 28.523438 20.996094 28.601562 21.035156 L 28.601562 25.523438 C 28.523438 25.5625 28.480469 25.5625 28.402344 25.605469 Z M 28.402344 25.605469 "/>
<path style=" stroke:none;fill-rule:nonzero;fill:url(#linear2);" d="M 24.019531 22.757812 C 24.019531 24.328125 22.75 25.605469 21.1875 25.605469 C 19.625 25.605469 18.359375 24.328125 18.359375 22.757812 C 18.359375 21.1875 19.625 19.914062 21.1875 19.914062 C 22.75 19.914062 24.019531 21.1875 24.019531 22.757812 Z M 24.019531 22.757812 "/>
</g>
</svg>
