<?xml version="1.0" encoding="utf-8"?>
<!-- Generator: Adobe Illustrator 22.1.0, SVG Export Plug-In . SVG Version: 6.00 Build 0)  -->
<svg version="1.1" xmlns="http://www.w3.org/2000/svg" xmlns:xlink="http://www.w3.org/1999/xlink" x="0px" y="0px"
	 viewBox="0 0 105 117.3" style="enable-background:new 0 0 105 117.3;" xml:space="preserve">
<style type="text/css">
	.st0{fill:#FFFFFF;}
	.st1{fill:#0B0B21;}
	.st2{fill:url(#SVGID_1_);}
	.st3{fill:url(#SVGID_2_);}
	.st4{fill:url(#SVGID_3_);}
	.st5{fill:url(#SVGID_4_);}
	.st6{fill:url(#SVGID_5_);}
	.st7{fill:url(#SVGID_6_);}
</style>
<g id="Layer_1">
	<g>
		<linearGradient id="SVGID_1_" gradientUnits="userSpaceOnUse" x1="78.051" y1="103.5119" x2="26.6899" y2="14.5519">
			<stop  offset="0" style="stop-color:#ED8EFF"/>
			<stop  offset="2.991431e-02" style="stop-color:#F492FF"/>
			<stop  offset="1" style="stop-color:#0000FF"/>
		</linearGradient>
		<path class="st2" d="M103,80.9c-0.8-1.5-2.1-2.5-3.6-3l0-13.3c2.6-1,4.5-3.6,4.5-6.6c0-3-1.8-5.6-4.5-6.6l0-10.4
			c2.6-1.1,4.4-3.6,4.5-6.6c0-3.9-3.2-7.1-7.1-7.2c-3.9,0-7.1,3.2-7.2,7.1c0,3,1.9,5.6,4.6,6.7l0,10.3c-2.7,1-4.6,3.6-4.6,6.6
			c0,3,1.9,5.6,4.5,6.6l0,13.3c-0.3,0.1-0.6,0.2-0.9,0.4c-2.6,1.5-3.9,4.4-3.5,7.2l-11.5,6.7c-2.2-1.7-5.4-2.1-8-0.6
			c-2.6,1.5-3.9,4.4-3.5,7.2l-9.8,5.7c-0.3-0.2-0.5-0.4-0.8-0.6c-2.6-1.5-5.8-1.2-8,0.6l-9.8-5.7c0.4-2.8-0.9-5.7-3.5-7.2
			c-2.6-1.5-5.7-1.2-8,0.6l-11.6-6.7c0-0.3,0.1-0.6,0.1-1c0-3-1.8-5.6-4.5-6.6l0-13.3c2.6-1,4.5-3.6,4.5-6.6c0-3-1.8-5.6-4.5-6.6
			l0-11.3c0.3-0.1,0.6-0.2,0.9-0.4c2.6-1.5,3.9-4.4,3.5-7.2L27,25.7c2.2,1.7,5.4,2.1,8,0.6c2.6-1.5,3.9-4.4,3.5-7.2l9.8-5.7
			c2.2,1.8,5.4,2.1,8,0.6c3.4-2,4.6-6.3,2.6-9.7S52.4-0.3,49,1.7c-2.6,1.5-3.9,4.4-3.5,7.2l-9.7,5.6c-2.2-1.8-5.4-2.1-8-0.6
			c-2.6,1.5-3.9,4.4-3.5,7.3l-11.5,6.6c-2.2-1.8-5.4-2.1-8-0.6c-3.4,2-4.6,6.3-2.6,9.7c0.9,1.5,2.2,2.5,3.7,3.1l0,11.2
			c-2.7,1-4.6,3.6-4.6,6.6c0,3,1.9,5.6,4.5,6.6l0,13.3c-2.7,1-4.6,3.6-4.6,6.6c0,3.9,3.2,7.1,7.1,7.2c1.7,0,3.2-0.6,4.5-1.6
			l11.5,6.7c-0.4,2.8,0.8,5.7,3.5,7.3c2.6,1.5,5.8,1.2,8-0.6l9.7,5.6c-0.4,2.8,0.9,5.7,3.5,7.2c3.4,2,7.8,0.8,9.7-2.6
			c0.8-1.5,1.1-3.1,0.8-4.6l9.8-5.6c2.2,1.8,5.4,2.1,8,0.6c2.6-1.5,3.9-4.4,3.5-7.3L92.3,90c2.2,1.8,5.4,2.1,8,0.6
			C103.8,88.6,104.9,84.3,103,80.9z"/>
		<linearGradient id="SVGID_2_" gradientUnits="userSpaceOnUse" x1="72.686" y1="79.1881" x2="43.1068" y2="27.9555">
			<stop  offset="0" style="stop-color:#56F8F8"/>
			<stop  offset="1" style="stop-color:#0000FF"/>
		</linearGradient>
		<path class="st3" d="M80.2,49c1.7-3.5,0.2-7.8-3.3-9.5c-0.2-0.1-0.3-0.1-0.5-0.2l0-14.2c2.6-1,4.5-3.6,4.5-6.6
			c0-3.9-3.2-7.1-7.1-7.2c-3.9,0-7.1,3.2-7.2,7.1c0,3,1.9,5.6,4.5,6.6l0,14.2c-0.7,0.3-1.3,0.6-1.8,1.1l-9.7-5.6
			c0.2-1.3,0-2.7-0.7-4c-1.7-3.5-6-5-9.5-3.3c-2.8,1.4-4.3,4.3-3.9,7.3l-9.7,5.6c-2.1-1.7-5-2.1-7.6-0.9c-3.5,1.7-5,6-3.3,9.5
			c0.8,1.7,2.2,2.9,3.8,3.5l0,11.2c-1.6,0.6-3,1.8-3.8,3.5c-1.7,3.5-0.2,7.8,3.3,9.5c2.6,1.2,5.5,0.8,7.6-0.9l9.7,5.6
			c-0.2,1.3,0,2.7,0.7,4c1.7,3.5,6,5,9.5,3.3c2.8-1.4,4.3-4.3,3.9-7.3l9.7-5.6c2.1,1.7,5,2.1,7.6,0.9c3.5-1.7,5-6,3.3-9.5
			c-0.8-1.7-2.2-2.9-3.8-3.5l0-11.2C78,51.9,79.4,50.7,80.2,49z M70.7,63.9c-2.9,1.4-4.3,4.4-3.9,7.4l-9.6,5.5
			c-2.1-1.7-5.1-2.2-7.7-1c-0.5,0.3-1,0.6-1.4,1l-9.6-5.5c0.4-3-1-6-3.9-7.4c-0.2-0.1-0.3-0.1-0.5-0.2l0-11.2
			c0.2-0.1,0.3-0.1,0.5-0.2c2.9-1.4,4.3-4.4,3.9-7.4l9.6-5.5c2.1,1.7,5.1,2.2,7.7,1c0.5-0.3,1-0.6,1.4-1l9.6,5.5c-0.4,3,1,6,3.9,7.4
			c0.2,0.1,0.3,0.1,0.5,0.2l0,11.2C71,63.8,70.9,63.8,70.7,63.9z"/>
		<g>
			<linearGradient id="SVGID_3_" gradientUnits="userSpaceOnUse" x1="56.1421" y1="63.0014" x2="49.0061" y2="50.6415">
				<stop  offset="0" style="stop-color:#56F8F8"/>
				<stop  offset="1" style="stop-color:#0000FF"/>
			</linearGradient>
			<circle class="st4" cx="52.6" cy="56.8" r="7.1"/>
		</g>
	</g>
</g>
<g id="Layer_2">
</g>
</svg>
